<svg id="visual" viewBox="0 0 900 600" width="900" height="600" xmlns="http://www.w3.org/2000/svg" xmlns:xlink="http://www.w3.org/1999/xlink" version="1.1"><rect x="0" y="0" width="900" height="600" fill="#1695d8"></rect><path d="M0 391L129 446L257 407L386 369L514 438L643 378L771 436L900 445L900 601L771 601L643 601L514 601L386 601L257 601L129 601L0 601Z" fill="#0075c0"></path><path d="M0 403L129 414L257 450L386 395L514 416L643 398L771 471L900 417L900 601L771 601L643 601L514 601L386 601L257 601L129 601L0 601Z" fill="#007fc8"></path><path d="M0 480L129 437L257 438L386 486L514 439L643 463L771 502L900 443L900 601L771 601L643 601L514 601L386 601L257 601L129 601L0 601Z" fill="#0285cc"></path><path d="M0 530L129 523L257 491L386 501L514 537L643 493L771 483L900 529L900 601L771 601L643 601L514 601L386 601L257 601L129 601L0 601Z" fill="#007fc8"></path><path d="M0 565L129 540L257 539L386 547L514 572L643 561L771 564L900 524L900 601L771 601L643 601L514 601L386 601L257 601L129 601L0 601Z" fill="#0075c0"></path></svg>